<svg width="18" height="18" viewBox="0 0 18 18" fill="none" xmlns="http://www.w3.org/2000/svg">
<path d="M6.43788 10.4983C6.43794 10.4983 6.438 10.4984 6.43806 10.4984L6.43788 10.4983ZM6.43788 10.4983L6.43699 10.4974C6.43728 10.4977 6.43758 10.498 6.43788 10.4983ZM8.28889 9.80114L7.01897 11.0808L6.9172 10.9788L8.19717 9.71051L8.91353 9.00071L8.19772 8.29036L6.91744 7.01983L7.02032 6.91695L8.28781 8.1981L8.99761 8.91554L9.7085 8.19918L10.979 6.9189L11.0819 7.02178L9.80076 8.28928L9.08332 8.99908L9.79968 9.70997L11.0794 10.9799L10.9773 11.0817L9.70905 9.80169L8.99924 9.08533L8.28889 9.80114ZM11.5631 7.50297C11.5629 7.50281 11.5628 7.50265 11.5626 7.50249L11.5631 7.50297ZM10.4959 11.5619C10.4962 11.5616 10.4965 11.5613 10.4968 11.561L10.4959 11.5619ZM8.9987 1.3335C4.76362 1.3335 1.33203 4.76508 1.33203 9.00016C1.33203 13.2352 4.76362 16.6668 8.9987 16.6668C13.2338 16.6668 16.6654 13.2352 16.6654 9.00016C16.6654 4.76508 13.2338 1.3335 8.9987 1.3335Z" fill="#B9C2CF" stroke="white" stroke-width="2"/>
</svg>
