<svg width="22" height="22" viewBox="0 0 22 22" fill="none" xmlns="http://www.w3.org/2000/svg">
<path fill-rule="evenodd" clip-rule="evenodd" d="M7.33385 1C7.33385 0.447716 7.78156 0 8.33385 0H13.6672C14.2195 0 14.6672 0.447715 14.6672 1V7.3332H21C21.5523 7.3332 22 7.78092 22 8.3332V10.3887H14.333C14.0939 10.3887 13.8816 10.557 13.8059 10.8066L12.6663 14.5673L9.86004 5.30658C9.78442 5.05704 9.57212 4.88872 9.33299 4.88872C9.09386 4.88872 8.88156 5.05704 8.80594 5.30658L7.2659 10.3887H0V8.33321C0 7.78092 0.447715 7.3332 1 7.3332H7.33385V1ZM0 11.6109V13.6665C0 14.2188 0.447716 14.6665 1 14.6665H7.33385V21C7.33385 21.5523 7.78156 22 8.33385 22H13.6672C14.2195 22 14.6672 21.5523 14.6672 21V14.6665H21C21.5523 14.6665 22 14.2188 22 13.6665V11.6109H14.7334L13.1934 16.6931C13.1178 16.9426 12.9054 17.1109 12.6663 17.1109C12.4272 17.1109 12.2149 16.9426 12.1393 16.6931L9.33299 7.43233L8.19337 11.1931C8.11775 11.4426 7.90545 11.6109 7.66632 11.6109H0Z" fill="#4493F2"/>
</svg>
