<svg width="24" height="24" viewBox="0 0 24 24" fill="none" xmlns="http://www.w3.org/2000/svg">
<path fill-rule="evenodd" clip-rule="evenodd" d="M2.126 19C2.044 18.681 2 18.346 2 18V6C2 3.791 3.791 2 6 2H18C20.209 2 22 3.791 22 6V18C22 20.209 20.209 22 18 22H6C4.136 22 2.57 20.726 2.126 19Z" fill="white"/>
<path d="M2.126 19C2.044 18.681 2 18.346 2 18V6C2 3.791 3.791 2 6 2H18C20.209 2 22 3.791 22 6V18C22 20.209 20.209 22 18 22H6C4.136 22 2.57 20.726 2.126 19" stroke="#4493F2" stroke-width="1.6" stroke-linecap="round" stroke-linejoin="round"/>
<path fill-rule="evenodd" clip-rule="evenodd" d="M2.126 19C2.044 18.681 2 18.346 2 18V6C2 3.791 3.791 2 6 2H18C20.209 2 22 3.791 22 6V18C22 19.5878 21.0747 20.9596 19.734 21.6056C19.2379 18.4189 15.8084 16.2001 12.0001 16.2001C8.19217 16.2001 4.7625 18.4197 4.26615 21.6059C3.21682 21.1006 2.42203 20.1508 2.126 19ZM5.82697 21.9963C5.88434 21.9988 5.94203 22 6 22H18C18.058 22 18.1157 21.9988 18.1732 21.9963C18.1716 21.9866 18.1702 21.9768 18.169 21.967C17.903 19.7872 15.4015 17.8001 12.0001 17.8001C8.59987 17.8001 6.09811 19.7872 5.83121 21.9663C5.82998 21.9764 5.82856 21.9864 5.82697 21.9963ZM7.2002 10.0001C7.2002 7.35025 9.35037 5.20007 12.0002 5.20007C14.65 5.20007 16.8002 7.35025 16.8002 10.0001C16.8002 12.6499 14.65 14.8001 12.0002 14.8001C9.35037 14.8001 7.2002 12.6499 7.2002 10.0001ZM12.0002 6.80007C10.234 6.80007 8.8002 8.2339 8.8002 10.0001C8.8002 11.7662 10.234 13.2001 12.0002 13.2001C13.7664 13.2001 15.2002 11.7662 15.2002 10.0001C15.2002 8.2339 13.7664 6.80007 12.0002 6.80007Z" fill="#4493F2"/>
</svg>
