<svg width="24" height="24" viewBox="0 0 24 24" fill="none" xmlns="http://www.w3.org/2000/svg">
<path fill-rule="evenodd" clip-rule="evenodd" d="M12.0002 14C14.2082 14 16.0002 12.208 16.0002 10C16.0002 7.792 14.2082 6 12.0002 6C9.79224 6 8.00024 7.792 8.00024 10C8.00024 12.208 9.79224 14 12.0002 14Z" stroke="white" stroke-width="1.2" stroke-linecap="round" stroke-linejoin="round"/>
<path d="M18.9631 21.87C18.6301 19.142 15.6381 17 12.0001 17C8.36311 17 5.37111 19.142 5.03711 21.869" stroke="white" stroke-width="1.2" stroke-linecap="round" stroke-linejoin="round"/>
<path d="M2.126 19C2.044 18.681 2 18.346 2 18V6C2 3.791 3.791 2 6 2H18C20.209 2 22 3.791 22 6V18C22 20.209 20.209 22 18 22H6C4.136 22 2.57 20.726 2.126 19" stroke="white" stroke-width="1.2" stroke-linecap="round" stroke-linejoin="round"/>
</svg>
