<svg width="318" height="50" viewBox="0 0 318 50" fill="none" xmlns="http://www.w3.org/2000/svg">
<rect x="1" y="1" width="316" height="48" rx="2" stroke="#64B5A6" stroke-width="2"/>
<path d="M17.8221 33.9999H15.5601V17.6459H17.8221V33.9999Z" fill="#3C3F42"/>
<path d="M23.1269 17.6459L32.6689 29.9699V17.6459H34.9569V34.0519H32.8509L23.2309 21.4939V34.0519H20.9429V17.6459H23.1269Z" fill="#3C3F42"/>
<path d="M40.2655 17.6459L49.8075 29.9699V17.6459H52.0955V34.0519H49.9895L40.3695 21.4939V34.0519H38.0815V17.6459H40.2655Z" fill="#3C3F42"/>
<path d="M62.9422 34.2859C61.7635 34.2859 60.6542 34.0692 59.6142 33.6359C58.5915 33.1852 57.6989 32.5785 56.9362 31.8159C56.1735 31.0359 55.5669 30.1345 55.1162 29.1119C54.6655 28.0892 54.4402 26.9885 54.4402 25.8099C54.4402 24.6485 54.6655 23.5565 55.1162 22.5339C55.5669 21.5112 56.1735 20.6185 56.9362 19.8559C57.6989 19.0759 58.5915 18.4692 59.6142 18.0359C60.6542 17.5852 61.7635 17.3599 62.9422 17.3599C64.1209 17.3599 65.2302 17.5852 66.2702 18.0359C67.3102 18.4692 68.2115 19.0759 68.9742 19.8559C69.7542 20.6185 70.3695 21.5112 70.8202 22.5339C71.2709 23.5565 71.4962 24.6485 71.4962 25.8099C71.4962 26.9885 71.2709 28.0892 70.8202 29.1119C70.3695 30.1345 69.7542 31.0359 68.9742 31.8159C68.2115 32.5785 67.3102 33.1852 66.2702 33.6359C65.2302 34.0692 64.1209 34.2859 62.9422 34.2859ZM62.9422 19.6219C62.0755 19.6219 61.2609 19.7865 60.4982 20.1159C59.7529 20.4452 59.0942 20.8872 58.5222 21.4419C57.9675 21.9965 57.5255 22.6552 57.1962 23.4179C56.8669 24.1632 56.7022 24.9605 56.7022 25.8099C56.7022 26.6765 56.8669 27.4912 57.1962 28.2539C57.5255 28.9992 57.9675 29.6492 58.5222 30.2039C59.0942 30.7585 59.7529 31.2005 60.4982 31.5299C61.2609 31.8592 62.0755 32.0239 62.9422 32.0239C63.8262 32.0239 64.6495 31.8592 65.4122 31.5299C66.1749 31.2005 66.8335 30.7585 67.3882 30.2039C67.9602 29.6492 68.4022 28.9992 68.7142 28.2539C69.0435 27.4912 69.2082 26.6765 69.2082 25.8099C69.2082 24.9605 69.0435 24.1632 68.7142 23.4179C68.4022 22.6552 67.9602 21.9965 67.3882 21.4419C66.8335 20.8872 66.1749 20.4452 65.4122 20.1159C64.6495 19.7865 63.8262 19.6219 62.9422 19.6219Z" fill="#3C3F42"/>
<path d="M81.8135 33.9999H79.4735L73.0515 17.6459H75.4175L81.8135 33.9999ZM85.9475 17.6459H88.3135L81.8655 33.9999H79.5255L85.9475 17.6459Z" fill="#3C3F42"/>
<path d="M99.0635 17.6459C100.069 20.1765 101.014 22.5339 101.898 24.7179C102.262 25.6539 102.634 26.5985 103.016 27.5519C103.397 28.4879 103.752 29.3719 104.082 30.2039C104.428 31.0359 104.732 31.7812 104.992 32.4399C105.269 33.0985 105.477 33.6099 105.616 33.9739H103.198C102.834 33.0379 102.461 32.1105 102.08 31.1919C101.716 30.2559 101.343 29.2939 100.962 28.3059C100.372 28.1325 99.7742 28.0459 99.1675 28.0459C98.7169 28.0459 98.2662 28.0805 97.8155 28.1499C97.3822 28.2192 96.9402 28.2885 96.4895 28.3579L94.4875 28.6699L92.3295 33.9739H89.8855L92.0435 28.5659C91.7489 28.5139 91.4282 28.4359 91.0815 28.3319C90.7522 28.2279 90.4229 28.0892 90.0935 27.9159V25.3159C90.6135 25.6452 91.0989 25.8965 91.5495 26.0699C92.0175 26.2432 92.4682 26.3559 92.9015 26.4079L96.4375 17.6459H99.0635ZM96.0475 26.1479C96.0822 26.1479 96.0995 26.1479 96.0995 26.1479C96.1169 26.1305 96.1429 26.1219 96.1775 26.1219C96.6282 26.0352 97.0962 25.9572 97.5815 25.8879C98.0669 25.8012 98.5609 25.7579 99.0635 25.7579C99.2022 25.7579 99.3495 25.7665 99.5055 25.7839C99.6615 25.7839 99.8089 25.7925 99.9475 25.8099L99.7915 25.3159L97.7895 20.3499L95.3975 26.2519C95.5015 26.2172 95.6055 26.1999 95.7095 26.1999C95.8309 26.1999 95.9435 26.1825 96.0475 26.1479Z" fill="#3C3F42"/>
<path d="M118.859 17.6719C118.842 18.2439 118.746 18.7812 118.573 19.2839C118.417 19.7692 118.183 20.2025 117.871 20.5839C117.559 20.9479 117.16 21.2425 116.675 21.4679C116.207 21.6759 115.661 21.7799 115.037 21.7799C114.084 21.7799 113.087 21.5892 112.047 21.2079V33.9999H109.837V20.2979C109.456 20.1592 109.048 20.0465 108.615 19.9599C108.182 19.8732 107.757 19.8299 107.341 19.8299C106.89 19.8299 106.474 19.9079 106.093 20.0639C105.729 20.2199 105.538 20.5665 105.521 21.1039H103.311C103.311 20.5319 103.415 20.0292 103.623 19.5959C103.848 19.1625 104.143 18.8072 104.507 18.5299C104.871 18.2352 105.296 18.0185 105.781 17.8799C106.284 17.7239 106.821 17.6459 107.393 17.6459C108.26 17.6459 109.031 17.7499 109.707 17.9579C110.4 18.1485 111.033 18.3652 111.605 18.6079C112.194 18.8505 112.758 19.0759 113.295 19.2839C113.85 19.4745 114.422 19.5699 115.011 19.5699C115.34 19.5699 115.609 19.5352 115.817 19.4659C116.025 19.3965 116.181 19.2925 116.285 19.1539C116.406 18.9979 116.484 18.7985 116.519 18.5559C116.571 18.3132 116.606 18.0185 116.623 17.6719H118.859Z" fill="#3C3F42"/>
<path d="M123.193 33.9999H120.931V17.6459H123.193V33.9999Z" fill="#3C3F42"/>
<path d="M134.296 33.9999H131.956L125.534 17.6459H127.9L134.296 33.9999ZM138.43 17.6459H140.796L134.348 33.9999H132.008L138.43 17.6459Z" fill="#3C3F42"/>
<path d="M154.536 33.9999H143.148V17.6719H154.094V19.9859H145.436V24.5359C145.904 24.7092 146.355 24.7959 146.788 24.7959C147.36 24.7959 147.897 24.7092 148.4 24.5359C148.903 24.3625 149.414 24.2759 149.934 24.2759C150.367 24.2759 150.775 24.3712 151.156 24.5619V26.9539C150.705 26.7979 150.281 26.7199 149.882 26.7199C149.345 26.7199 148.825 26.7892 148.322 26.9279C147.819 27.0665 147.282 27.1359 146.71 27.1359C146.294 27.1359 145.869 27.0752 145.436 26.9539V31.7119H154.536V33.9999Z" fill="#3C3F42"/>
<path fill-rule="evenodd" clip-rule="evenodd" d="M167.334 15C167.334 14.4477 167.782 14 168.334 14H173.667C174.219 14 174.667 14.4477 174.667 15V21.3332H181C181.552 21.3332 182 21.7809 182 22.3332V24.3887H174.333C174.094 24.3887 173.882 24.557 173.806 24.8066L172.666 28.5673L169.86 19.3066C169.784 19.057 169.572 18.8887 169.333 18.8887C169.094 18.8887 168.882 19.057 168.806 19.3066L167.266 24.3887H160V22.3332C160 21.7809 160.448 21.3332 161 21.3332H167.334V15ZM160 25.6109V27.6665C160 28.2188 160.448 28.6665 161 28.6665H167.334V35C167.334 35.5523 167.782 36 168.334 36H173.667C174.219 36 174.667 35.5523 174.667 35V28.6665H181C181.552 28.6665 182 28.2188 182 27.6665V25.6109H174.733L173.193 30.6931C173.118 30.9426 172.905 31.1109 172.666 31.1109C172.427 31.1109 172.215 30.9426 172.139 30.6931L169.333 21.4323L168.193 25.1931C168.118 25.4426 167.905 25.6109 167.666 25.6109H160Z" fill="#4493F2"/>
<path d="M205.292 17.5609V33.8629H203.056V20.1609C202.727 20.4556 202.423 20.8369 202.146 21.3049C201.869 21.7556 201.591 22.2322 201.314 22.7349C201.002 23.3416 200.69 23.9482 200.378 24.5549C200.083 25.1442 199.745 25.6729 199.364 26.1409C199 26.6089 198.575 26.9902 198.09 27.2849C197.622 27.5622 197.05 27.7009 196.374 27.7009C195.698 27.7009 195.126 27.5622 194.658 27.2849C194.19 27.0076 193.774 26.6436 193.41 26.1929C193.063 25.7249 192.751 25.2049 192.474 24.6329C192.197 24.0609 191.911 23.4802 191.616 22.8909C191.321 22.3362 191.027 21.8249 190.732 21.3569C190.455 20.8716 190.143 20.4729 189.796 20.1609V33.8629H187.56V17.5609H189.744C190.247 17.7342 190.689 17.9856 191.07 18.3149C191.469 18.6269 191.824 18.9909 192.136 19.4069C192.448 19.8056 192.725 20.2389 192.968 20.7069C193.228 21.1576 193.479 21.6082 193.722 22.0589C193.982 22.5789 194.207 23.0556 194.398 23.4889C194.589 23.9049 194.779 24.2602 194.97 24.5549C195.161 24.8322 195.36 25.0489 195.568 25.2049C195.793 25.3609 196.062 25.4389 196.374 25.4389C196.703 25.4389 196.981 25.3609 197.206 25.2049C197.431 25.0489 197.639 24.8322 197.83 24.5549C198.038 24.2602 198.237 23.9049 198.428 23.4889C198.636 23.0556 198.87 22.5789 199.13 22.0589C199.355 21.6082 199.598 21.1576 199.858 20.7069C200.118 20.2389 200.404 19.8056 200.716 19.4069C201.028 18.9909 201.375 18.6269 201.756 18.3149C202.155 17.9856 202.605 17.7342 203.108 17.5609H205.292Z" fill="#3C3F42"/>
<path d="M219.794 33.8889H208.406V17.5609H219.352V19.8749H210.694V24.4249C211.162 24.5982 211.612 24.6849 212.046 24.6849C212.618 24.6849 213.155 24.5982 213.658 24.4249C214.16 24.2516 214.672 24.1649 215.192 24.1649C215.625 24.1649 216.032 24.2602 216.414 24.4509V26.8429C215.963 26.6869 215.538 26.6089 215.14 26.6089C214.602 26.6089 214.082 26.6782 213.58 26.8169C213.077 26.9556 212.54 27.0249 211.968 27.0249C211.552 27.0249 211.127 26.9642 210.694 26.8429V31.6009H219.794V33.8889Z" fill="#3C3F42"/>
<path d="M222.904 33.8369V17.6129C223.684 17.5262 224.542 17.4482 225.478 17.3789C226.414 17.2922 227.384 17.2489 228.39 17.2489C229.655 17.2489 230.868 17.4309 232.03 17.7949C233.191 18.1589 234.214 18.6962 235.098 19.4069C235.982 20.1176 236.684 20.9929 237.204 22.0329C237.741 23.0556 238.01 24.2429 238.01 25.5949C238.01 27.0856 237.741 28.3682 237.204 29.4429C236.684 30.5176 235.964 31.4016 235.046 32.0949C234.144 32.7882 233.087 33.2996 231.874 33.6289C230.678 33.9582 229.395 34.1229 228.026 34.1229C227.558 34.1229 227.064 34.1142 226.544 34.0969C226.024 34.0969 225.53 34.0796 225.062 34.0449C224.594 34.0276 224.169 34.0016 223.788 33.9669C223.406 33.9322 223.112 33.8889 222.904 33.8369ZM225.192 19.7449V31.6789C225.556 31.7656 225.989 31.8349 226.492 31.8869C226.994 31.9216 227.436 31.9389 227.818 31.9389C228.875 31.9389 229.88 31.8176 230.834 31.5749C231.787 31.3322 232.628 30.9596 233.356 30.4569C234.084 29.9369 234.664 29.2782 235.098 28.4809C235.531 27.6836 235.748 26.7216 235.748 25.5949C235.748 24.5029 235.514 23.5756 235.046 22.8129C234.595 22.0502 233.997 21.4262 233.252 20.9409C232.524 20.4556 231.7 20.1002 230.782 19.8749C229.88 19.6496 228.979 19.5369 228.078 19.5369C227.523 19.5369 226.994 19.5629 226.492 19.6149C225.989 19.6496 225.556 19.6929 225.192 19.7449Z" fill="#3C3F42"/>
<path d="M254.855 17.5609C254.838 18.1329 254.743 18.6702 254.569 19.1729C254.413 19.6582 254.179 20.0916 253.867 20.4729C253.555 20.8369 253.157 21.1316 252.671 21.3569C252.203 21.5649 251.657 21.6689 251.033 21.6689C250.08 21.6689 249.083 21.4782 248.043 21.0969V33.8889H245.833V20.1869C245.452 20.0482 245.045 19.9356 244.611 19.8489C244.178 19.7622 243.753 19.7189 243.337 19.7189C242.886 19.7189 242.471 19.7969 242.089 19.9529C241.725 20.1089 241.535 20.4556 241.517 20.9929H239.307C239.307 20.4209 239.411 19.9182 239.619 19.4849C239.845 19.0516 240.139 18.6962 240.503 18.4189C240.867 18.1242 241.292 17.9076 241.777 17.7689C242.28 17.6129 242.817 17.5349 243.389 17.5349C244.256 17.5349 245.027 17.6389 245.703 17.8469C246.396 18.0376 247.029 18.2542 247.601 18.4969C248.19 18.7396 248.754 18.9649 249.291 19.1729C249.846 19.3636 250.418 19.4589 251.007 19.4589C251.337 19.4589 251.605 19.4242 251.813 19.3549C252.021 19.2856 252.177 19.1816 252.281 19.0429C252.403 18.8869 252.48 18.6876 252.515 18.4449C252.567 18.2022 252.602 17.9076 252.619 17.5609H254.855Z" fill="#3C3F42"/>
<path d="M268.315 33.8889H256.927V17.5609H267.873V19.8749H259.215V24.4249C259.683 24.5982 260.134 24.6849 260.567 24.6849C261.139 24.6849 261.677 24.5982 262.179 24.4249C262.682 24.2516 263.193 24.1649 263.713 24.1649C264.147 24.1649 264.554 24.2602 264.935 24.4509V26.8429C264.485 26.6869 264.06 26.6089 263.661 26.6089C263.124 26.6089 262.604 26.6782 262.101 26.8169C261.599 26.9556 261.061 27.0249 260.489 27.0249C260.073 27.0249 259.649 26.9642 259.215 26.8429V31.6009H268.315V33.8889Z" fill="#3C3F42"/>
<path d="M285.759 28.5329C285.413 29.5209 284.884 30.4222 284.173 31.2369C283.463 32.0516 282.596 32.7189 281.573 33.2389C280.36 33.8456 279.086 34.1489 277.751 34.1489C276.919 34.1489 276.122 34.0449 275.359 33.8369C274.597 33.6116 273.886 33.2996 273.227 32.9009C272.569 32.4849 271.971 31.9909 271.433 31.4189C270.913 30.8469 270.471 30.1969 270.107 29.4689C269.813 28.8622 269.587 28.2382 269.431 27.5969C269.293 26.9556 269.223 26.3229 269.223 25.6989C269.223 24.9189 269.327 24.1476 269.535 23.3849C269.761 22.6222 270.073 21.9116 270.471 21.2529C270.87 20.5769 271.364 19.9702 271.953 19.4329C272.543 18.8782 273.21 18.4102 273.955 18.0289C275.203 17.4222 276.495 17.1189 277.829 17.1189C278.644 17.1189 279.424 17.2316 280.169 17.4569C280.932 17.6649 281.643 17.9769 282.301 18.3929C282.96 18.7916 283.549 19.2769 284.069 19.8489C284.607 20.4209 285.057 21.0709 285.421 21.7989C285.612 22.1629 285.768 22.5182 285.889 22.8649C285.265 22.8649 284.789 22.8649 284.459 22.8649C284.13 22.8476 283.887 22.8389 283.731 22.8389C283.575 22.8389 283.48 22.8389 283.445 22.8389C283.411 22.8216 283.393 22.8129 283.393 22.8129C282.873 21.7382 282.111 20.8976 281.105 20.2909C280.117 19.6842 279.025 19.3809 277.829 19.3809C276.807 19.3809 275.853 19.6062 274.969 20.0569C274.415 20.3342 273.921 20.6809 273.487 21.0969C273.071 21.4956 272.716 21.9462 272.421 22.4489C272.127 22.9342 271.901 23.4542 271.745 24.0089C271.589 24.5636 271.511 25.1269 271.511 25.6989C271.511 26.6522 271.728 27.5709 272.161 28.4549C272.681 29.5296 273.435 30.3702 274.423 30.9769C275.429 31.5836 276.538 31.8869 277.751 31.8869C278.687 31.8869 279.623 31.6616 280.559 31.2109C281.166 30.9162 281.703 30.5349 282.171 30.0669C282.639 29.5989 283.021 29.0876 283.315 28.5329H285.759Z" fill="#3C3F42"/>
<path d="M302.248 17.5349V33.8889H299.986V26.6089H290.496V33.8889H288.234V17.5349H290.496V24.3209H299.986V17.5349H302.248Z" fill="#3C3F42"/>
</svg>
