<svg width="16" height="16" viewBox="0 0 16 16" fill="none" xmlns="http://www.w3.org/2000/svg">
<path d="M5.8157 5.60164L6.07575 5.56373L6.19199 5.32803L7.97723 1.70836C7.97726 1.7083 7.97728 1.70824 7.97731 1.70818C8.11396 1.43176 8.51118 1.42928 8.65007 1.70872C8.65014 1.70884 8.6502 1.70897 8.65026 1.70909L10.4351 5.32803L10.5514 5.56373L10.8114 5.60164L14.8059 6.18399L14.8062 6.18404C15.1119 6.22838 15.2358 6.60697 15.0131 6.82377L15.013 6.82391L12.1231 9.63997L11.9347 9.82352L11.9793 10.0827L12.6627 14.0604C12.6627 14.0604 12.6627 14.0604 12.6627 14.0604C12.7147 14.3644 12.3932 14.5988 12.1197 14.4549L12.1196 14.4549L8.5462 12.5766L8.31356 12.4543L8.08093 12.5766L4.50754 14.4549L4.50597 14.4557C4.23586 14.5989 3.91189 14.3674 3.96442 14.0604L4.64787 10.0827L4.69241 9.82352L4.50404 9.63997L1.61416 6.82391L1.61402 6.82377C1.39136 6.60697 1.51524 6.22838 1.82091 6.18404L1.82127 6.18399L5.8157 5.60164Z" fill="white" stroke="#B9C2CF"/>
</svg>
