<svg width="16" height="16" viewBox="0 0 16 16" fill="none" xmlns="http://www.w3.org/2000/svg">
<path d="M14.283 5.68973L10.4599 5.10703L8.75148 1.48699C8.5979 1.16352 8.29832 1 7.99873 1C7.70097 1 7.40348 1.16133 7.24937 1.48699L5.5404 5.10676L1.71709 5.68891C1.03146 5.79281 0.756686 6.67574 1.25373 7.1816L4.01948 9.99801L3.36494 13.976C3.27196 14.5442 3.70527 15 4.19056 15C4.31933 15 4.45176 14.968 4.57896 14.8975L7.99925 13.0195L11.4193 14.898C11.5462 14.9677 11.6784 14.9995 11.8066 14.9995C12.2924 14.9995 12.7265 14.5453 12.6336 13.9768L11.9798 9.99855L14.7461 7.1827C15.2434 6.67684 14.9686 5.79363 14.283 5.68973ZM11.1032 9.05848L10.63 9.54027L10.7418 10.2206L11.2516 13.3227L8.58406 11.8574L7.99951 11.5364L8.0003 2.8632L9.33316 5.68754L9.62517 6.30633L10.2784 6.40586L13.262 6.86059L11.1032 9.05848Z" fill="#F8CC46"/>
<path fill-rule="evenodd" clip-rule="evenodd" d="M8 13.0199L11.4193 14.898C11.5462 14.9677 11.6784 14.9995 11.8066 14.9995C12.2924 14.9995 12.7265 14.5453 12.6336 13.9768L11.9798 9.99855L14.7461 7.18269C15.2434 6.67683 14.9686 5.79363 14.283 5.68972L10.4599 5.10703L8.75148 1.48699C8.59812 1.16397 8.29916 1.00046 8 1V6.15191L8.0003 2.8632L9.33316 5.68754L9.62517 6.30633L10.2784 6.40586L13.262 6.86058L11.1032 9.05847L10.63 9.54027L10.7418 10.2206L11.2516 13.3227L8.58406 11.8574L8 11.5366V13.0199Z" fill="#E0E0E0"/>
</svg>
