<svg width="37" height="36" viewBox="0 0 37 36" fill="none" xmlns="http://www.w3.org/2000/svg">
<rect x="1.05811" y="1" width="34.8232" height="34" rx="17" stroke="#64B5A6" stroke-width="2"/>
<path fill-rule="evenodd" clip-rule="evenodd" d="M14.9906 9.7995C15.8905 9.759 16.1774 9.75 18.4696 9.75C20.7619 9.75 21.0488 9.75975 21.9479 9.7995C22.847 9.83925 23.4607 9.9795 23.9977 10.1827C24.56 10.3905 25.0702 10.7152 25.4921 11.1352C25.9217 11.547 26.2531 12.045 26.4649 12.5955C26.6735 13.1205 26.8162 13.7205 26.8577 14.598C26.8991 15.4792 26.9083 15.7597 26.9083 18C26.9083 20.241 26.8983 20.5215 26.8577 21.4012C26.817 22.2787 26.6735 22.8787 26.4649 23.4037C26.2531 23.9543 25.9212 24.4531 25.4921 24.8655C25.0702 25.2855 24.56 25.6095 23.9977 25.8165C23.4607 26.0205 22.847 26.16 21.9494 26.2005C21.0488 26.241 20.7619 26.25 18.4696 26.25C16.1774 26.25 15.8905 26.2402 14.9906 26.2005C14.0931 26.1607 13.4793 26.0205 12.9423 25.8165C12.3792 25.6095 11.869 25.2849 11.4472 24.8655C11.0179 24.4535 10.6856 23.9549 10.4737 23.4045C10.2658 22.8795 10.1231 22.2795 10.0816 21.402C10.0402 20.5207 10.031 20.2402 10.031 18C10.031 15.759 10.041 15.4785 10.0816 14.5995C10.1223 13.7205 10.2658 13.1205 10.4737 12.5955C10.6859 12.0451 11.0184 11.5465 11.4479 11.1345C11.8691 10.7149 12.3788 10.3901 12.9416 10.1827C13.4786 9.9795 14.0923 9.84 14.9899 9.7995H14.9906ZM21.8796 11.2845C20.9897 11.2447 20.7228 11.2365 18.4696 11.2365C16.2165 11.2365 15.9496 11.2447 15.0597 11.2845C14.2365 11.3212 13.79 11.4555 13.4924 11.5687C13.0988 11.7187 12.8173 11.8965 12.5219 12.1853C12.242 12.4515 12.0265 12.7757 11.8913 13.134C11.7755 13.425 11.6382 13.8615 11.6006 14.6662C11.5599 15.5362 11.5515 15.7972 11.5515 18C11.5515 20.2027 11.5599 20.4637 11.6006 21.3337C11.6382 22.1385 11.7755 22.575 11.8913 22.866C12.0264 23.2237 12.2419 23.5485 12.5219 23.8147C12.7943 24.0885 13.1265 24.2992 13.4924 24.4312C13.79 24.5445 14.2365 24.6787 15.0597 24.7155C15.9496 24.7552 16.2158 24.7635 18.4696 24.7635C20.7235 24.7635 20.9897 24.7552 21.8796 24.7155C22.7028 24.6787 23.1493 24.5445 23.4469 24.4312C23.8405 24.2812 24.122 24.1035 24.4174 23.8147C24.6974 23.5485 24.9129 23.2237 25.048 22.866C25.1638 22.575 25.3011 22.1385 25.3387 21.3337C25.3794 20.4637 25.3878 20.2027 25.3878 18C25.3878 15.7972 25.3794 15.5362 25.3387 14.6662C25.3011 13.8615 25.1638 13.425 25.048 13.134C24.8945 12.7492 24.7127 12.474 24.4174 12.1853C24.145 11.9116 23.8134 11.7009 23.4469 11.5687C23.1493 11.4555 22.7028 11.3212 21.8796 11.2845ZM17.3918 20.5432C17.9938 20.7882 18.664 20.8213 19.2881 20.6368C19.9123 20.4523 20.4515 20.0617 20.8138 19.5317C21.176 19.0017 21.3388 18.3652 21.2744 17.7308C21.2099 17.0965 20.9222 16.5037 20.4604 16.0537C20.166 15.7661 19.81 15.5459 19.4181 15.4089C19.0262 15.2719 18.6081 15.2215 18.1939 15.2615C17.7796 15.3014 17.3796 15.4306 17.0227 15.6398C16.6657 15.8491 16.3606 16.1331 16.1293 16.4714C15.8981 16.8097 15.7464 17.194 15.6853 17.5965C15.6242 17.999 15.6551 18.4097 15.7758 18.7991C15.8966 19.1886 16.1041 19.547 16.3836 19.8485C16.663 20.1501 17.0073 20.3874 17.3918 20.5432ZM15.4026 15.0015C15.8054 14.6077 16.2835 14.2954 16.8098 14.0823C17.336 13.8692 17.9 13.7595 18.4696 13.7595C19.0393 13.7595 19.6033 13.8692 20.1295 14.0823C20.6558 14.2954 21.1339 14.6077 21.5367 15.0015C21.9395 15.3953 22.259 15.8627 22.477 16.3772C22.6949 16.8917 22.8071 17.4431 22.8071 18C22.8071 18.5569 22.6949 19.1083 22.477 19.6228C22.259 20.1373 21.9395 20.6047 21.5367 20.9985C20.7233 21.7938 19.62 22.2405 18.4696 22.2405C17.3193 22.2405 16.216 21.7938 15.4026 20.9985C14.5891 20.2032 14.1322 19.1247 14.1322 18C14.1322 16.8753 14.5891 15.7968 15.4026 15.0015ZM23.7691 14.391C23.8689 14.299 23.9488 14.1883 24.0041 14.0655C24.0594 13.9427 24.0889 13.8103 24.0909 13.6762C24.0929 13.5421 24.0673 13.4089 24.0157 13.2846C23.9642 13.1603 23.8876 13.0474 23.7906 12.9525C23.6935 12.8577 23.578 12.7828 23.4509 12.7324C23.3237 12.682 23.1875 12.657 23.0504 12.6589C22.9132 12.6609 22.7778 12.6897 22.6522 12.7438C22.5266 12.7978 22.4134 12.8759 22.3192 12.9735C22.1361 13.1633 22.0358 13.4153 22.0397 13.6762C22.0436 13.9371 22.1513 14.1862 22.34 14.3706C22.5287 14.5551 22.7835 14.6604 23.0504 14.6642C23.3172 14.668 23.575 14.57 23.7691 14.391Z" fill="#64B5A6"/>
</svg>
