<svg width="37" height="36" viewBox="0 0 37 36" fill="none" xmlns="http://www.w3.org/2000/svg">
<rect x="1.09302" y="1" width="34.8232" height="34" rx="17" stroke="#64B5A6" stroke-width="2"/>
<path d="M9.43375 17.7797C10.9926 16.9403 12.7326 16.2397 14.3584 15.5355C17.1555 14.3821 19.9636 13.2487 22.8001 12.1935C23.352 12.0137 24.3436 11.8379 24.4408 12.6375C24.3875 13.7693 24.1685 14.8944 24.0183 16.0196C23.637 18.4939 23.1963 20.9597 22.7665 23.4259C22.6184 24.2474 21.5658 24.6726 20.8923 24.1469C19.2737 23.0781 17.6427 22.0196 16.0448 20.9259C15.5213 20.406 16.0067 19.6592 16.4742 19.2879C17.8073 18.0035 19.2211 16.9122 20.4846 15.5614C20.8254 14.7569 19.8184 15.4349 19.4862 15.6427C17.6612 16.8723 15.8808 18.1769 13.9566 19.2575C12.9738 19.7864 11.8282 19.3344 10.8458 19.0393C9.96494 18.6827 8.67414 18.3235 9.43366 17.7799L9.43375 17.7797Z" fill="#64B5A6"/>
</svg>
