<svg width="37" height="36" viewBox="0 0 37 36" fill="none" xmlns="http://www.w3.org/2000/svg">
<rect x="1.06421" y="1" width="34.8232" height="34" rx="17" stroke="#64B5A6" stroke-width="2"/>
<path fill-rule="evenodd" clip-rule="evenodd" d="M18.5138 26.87H18.5101C16.9864 26.8695 15.4892 26.4957 14.1595 25.7866L9.33325 27.0243L10.6248 22.4122C9.82812 21.0623 9.4089 19.5312 9.40958 17.9625C9.41158 13.0551 13.4957 9.0625 18.5137 9.0625C20.9492 9.06353 23.235 9.99044 24.9539 11.6728C26.6727 13.3551 27.6188 15.5913 27.6179 17.9695C27.6158 22.8758 23.5334 26.868 18.5138 26.87ZM14.3829 24.1755L14.6592 24.3359C15.821 25.0099 17.1528 25.3665 18.5106 25.367H18.5137C22.6844 25.367 26.0789 22.0483 26.0805 17.9692C26.0813 15.9925 25.295 14.1339 23.8664 12.7355C22.4377 11.3372 20.5378 10.5667 18.5167 10.566C14.3428 10.566 10.9482 13.8844 10.9466 17.9632C10.946 19.3611 11.346 20.7224 12.1035 21.9002L12.2834 22.1801L11.519 24.91L14.3829 24.1755ZM22.7889 19.886C22.9475 19.961 23.0547 20.0116 23.1004 20.0863C23.1573 20.179 23.1573 20.6243 22.9678 21.1439C22.7781 21.6633 21.8694 22.1375 21.4323 22.2013C21.0404 22.2586 20.5444 22.2825 19.9995 22.1132C19.6691 22.0107 19.2454 21.8738 18.7027 21.6447C16.5701 20.7444 15.1289 18.7237 14.8565 18.3418C14.8375 18.315 14.8241 18.2963 14.8167 18.2866L14.8148 18.2842C14.6944 18.1272 13.8878 17.075 13.8878 15.986C13.8878 14.9616 14.4025 14.4247 14.6394 14.1775C14.6557 14.1606 14.6706 14.145 14.684 14.1307C14.8925 13.9081 15.1389 13.8524 15.2906 13.8524C15.4422 13.8524 15.594 13.8538 15.7266 13.8603C15.7429 13.8611 15.7599 13.861 15.7775 13.8609C15.9101 13.8601 16.0753 13.8592 16.2384 14.2421C16.3011 14.3894 16.3929 14.6079 16.4897 14.8382C16.6854 15.3041 16.9017 15.8189 16.9397 15.8934C16.9966 16.0047 17.0345 16.1345 16.9587 16.283C16.9473 16.3053 16.9368 16.3263 16.9267 16.3464C16.8698 16.46 16.8279 16.5436 16.7312 16.654C16.6932 16.6974 16.6539 16.7441 16.6147 16.7909C16.5364 16.8841 16.4581 16.9773 16.39 17.0436C16.2761 17.1545 16.1576 17.2748 16.2903 17.4975C16.423 17.7201 16.8795 18.4484 17.5558 19.0381C18.2827 19.672 18.9145 19.9399 19.2348 20.0758C19.2973 20.1023 19.348 20.1238 19.3851 20.1419C19.6125 20.2533 19.7452 20.2347 19.8779 20.0863C20.0106 19.9379 20.4466 19.4369 20.5982 19.2143C20.7498 18.9917 20.9015 19.0288 21.11 19.103C21.3186 19.1772 22.437 19.7152 22.6644 19.8265C22.7089 19.8482 22.7504 19.8679 22.7889 19.886Z" fill="#64B5A6"/>
</svg>
