<svg width="37" height="36" viewBox="0 0 37 36" fill="none" xmlns="http://www.w3.org/2000/svg">
<rect x="1.02905" y="1" width="34.8232" height="34" rx="17" stroke="#64B5A6" stroke-width="2"/>
<path d="M26.4956 17.951C26.4956 17.9123 26.4956 17.8684 26.4938 17.8174C26.492 17.675 26.4884 17.515 26.4848 17.3445C26.4705 16.8541 26.4453 16.3654 26.4057 15.9049C26.3518 15.2703 26.2727 14.7412 26.1648 14.3439C26.051 13.9294 25.8278 13.5513 25.5176 13.2474C25.2075 12.9436 24.8212 12.7246 24.3974 12.6125C23.8885 12.4789 22.8924 12.3963 21.49 12.3453C20.8229 12.3207 20.1091 12.3049 19.3953 12.2961C19.1454 12.2926 18.9134 12.2908 18.7049 12.2891H18.1763C17.9677 12.2908 17.7357 12.2926 17.4858 12.2961C16.772 12.3049 16.0582 12.3207 15.3911 12.3453C13.9887 12.398 12.9908 12.4807 12.4838 12.6125C12.0598 12.7244 11.6734 12.9432 11.3632 13.2471C11.053 13.551 10.8299 13.9292 10.7163 14.3439C10.6067 14.7412 10.5293 15.2703 10.4754 15.9049C10.4358 16.3654 10.4107 16.8541 10.3963 17.3445C10.3909 17.515 10.3891 17.675 10.3873 17.8174C10.3873 17.8684 10.3855 17.9123 10.3855 17.951V18.0494C10.3855 18.0881 10.3855 18.132 10.3873 18.183C10.3891 18.3254 10.3927 18.4854 10.3963 18.6559C10.4107 19.1463 10.4358 19.635 10.4754 20.0955C10.5293 20.7301 10.6085 21.2592 10.7163 21.6564C10.9465 22.4984 11.6225 23.1629 12.4838 23.3879C12.9908 23.5215 13.9887 23.6041 15.3911 23.6551C16.0582 23.6797 16.772 23.6955 17.4858 23.7043C17.7357 23.7078 17.9677 23.7096 18.1763 23.7113H18.7049C18.9134 23.7096 19.1454 23.7078 19.3953 23.7043C20.1091 23.6955 20.8229 23.6797 21.49 23.6551C22.8924 23.6023 23.8903 23.5197 24.3974 23.3879C25.2586 23.1629 25.9347 22.5002 26.1648 21.6564C26.2745 21.2592 26.3518 20.7301 26.4057 20.0955C26.4453 19.635 26.4705 19.1463 26.4848 18.6559C26.4902 18.4854 26.492 18.3254 26.4938 18.183C26.4938 18.132 26.4956 18.0881 26.4956 18.0494V17.951ZM25.2011 18.0424C25.2011 18.0793 25.2011 18.1197 25.1993 18.1672C25.1975 18.3043 25.1939 18.4555 25.1903 18.6189C25.1777 19.0865 25.1525 19.5541 25.1148 19.9883C25.0662 20.5543 24.9979 21.0184 24.9134 21.3295C24.8019 21.7355 24.4747 22.0572 24.0611 22.1645C23.6836 22.2629 22.7324 22.342 21.4396 22.3895C20.7852 22.4141 20.0803 22.4299 19.3773 22.4387C19.131 22.4422 18.9027 22.4439 18.6977 22.4439H18.1835L17.5038 22.4387C16.8008 22.4299 16.0978 22.4141 15.4415 22.3895C14.1487 22.3402 13.1958 22.2629 12.82 22.1645C12.4065 22.0555 12.0792 21.7355 11.9677 21.3295C11.8832 21.0184 11.8149 20.5543 11.7664 19.9883C11.7286 19.5541 11.7052 19.0865 11.6909 18.6189C11.6855 18.4555 11.6837 18.3025 11.6819 18.1672C11.6819 18.1197 11.6801 18.0775 11.6801 18.0424V17.958C11.6801 17.9211 11.6801 17.8807 11.6819 17.8332C11.6837 17.6961 11.6873 17.5449 11.6909 17.3814C11.7034 16.9139 11.7286 16.4463 11.7664 16.0121C11.8149 15.4461 11.8832 14.982 11.9677 14.6709C12.0792 14.2648 12.4065 13.9432 12.82 13.8359C13.1976 13.7375 14.1487 13.6584 15.4415 13.6109C16.096 13.5863 16.8008 13.5705 17.5038 13.5617C17.7501 13.5582 17.9785 13.5564 18.1835 13.5564H18.6977L19.3773 13.5617C20.0803 13.5705 20.7834 13.5863 21.4396 13.6109C22.7324 13.6602 23.6854 13.7375 24.0611 13.8359C24.4747 13.9449 24.8019 14.2648 24.9134 14.6709C24.9979 14.982 25.0662 15.4461 25.1148 16.0121C25.1525 16.4463 25.1759 16.9139 25.1903 17.3814C25.1957 17.5449 25.1975 17.6979 25.1993 17.8332C25.1993 17.8807 25.2011 17.9229 25.2011 17.958V18.0424ZM16.8403 20.3557L21.0117 17.9826L16.8403 15.6447V20.3557Z" fill="#64B5A6"/>
</svg>
