<svg width="60" height="60" viewBox="0 0 60 60" fill="none" xmlns="http://www.w3.org/2000/svg">
<circle cx="30" cy="30" r="29.5" stroke="#4493F2"/>
<path d="M24.6745 29.0591L24.6558 29.0632H32.6857L30.1614 26.5334C30.0378 26.4099 29.9699 26.2426 29.9699 26.0669C29.9699 25.8913 30.0378 25.7252 30.1614 25.6014L30.5541 25.2084C30.6777 25.0849 30.8422 25.0166 31.0178 25.0166C31.1934 25.0166 31.358 25.0844 31.4816 25.2079L35.8087 29.5346C35.9327 29.6586 36.0005 29.8238 36 29.9995C36.0005 30.1762 35.9327 30.3415 35.8087 30.4653L31.4816 34.7924C31.358 34.9158 31.1935 34.9837 31.0178 34.9837C30.8422 34.9837 30.6777 34.9157 30.5541 34.7924L30.1614 34.3994C30.0378 34.2761 29.9699 34.1114 29.9699 33.9358C29.9699 33.7603 30.0378 33.6043 30.1614 33.4809L32.7141 30.9369H24.6656C24.3039 30.9369 24 30.6252 24 30.2637V29.7079C24 29.3465 24.3129 29.0591 24.6745 29.0591Z" fill="#4493F2"/>
</svg>
