<svg width="60" height="60" viewBox="0 0 60 60" fill="none" xmlns="http://www.w3.org/2000/svg">
<circle r="29.5" transform="matrix(-1 0 0 1 30 30)" stroke="#6F7893"/>
<path d="M35.3255 29.0591L35.3442 29.0632H27.3143L29.8386 26.5334C29.9622 26.4099 30.0301 26.2426 30.0301 26.0669C30.0301 25.8913 29.9622 25.7252 29.8386 25.6014L29.4459 25.2084C29.3223 25.0849 29.1578 25.0166 28.9822 25.0166C28.8066 25.0166 28.642 25.0844 28.5184 25.2079L24.1913 29.5346C24.0673 29.6586 23.9995 29.8238 24 29.9995C23.9995 30.1762 24.0673 30.3415 24.1913 30.4653L28.5184 34.7924C28.642 34.9158 28.8065 34.9837 28.9822 34.9837C29.1578 34.9837 29.3223 34.9157 29.4459 34.7924L29.8386 34.3994C29.9622 34.2761 30.0301 34.1114 30.0301 33.9358C30.0301 33.7603 29.9622 33.6043 29.8386 33.4809L27.2859 30.9369H35.3344C35.6961 30.9369 36 30.6252 36 30.2637V29.7079C36 29.3465 35.6871 29.0591 35.3255 29.0591Z" fill="#6F7893"/>
</svg>
